<svg xmlns="http://www.w3.org/2000/svg" viewBox="0 0 512 512" width="512" height="512">
  <!-- LF Engineering — Motorsport Data Engineering by Lorenzo Ferri -->
  <circle cx="256" cy="256" r="256" fill="#F7F6F3"/>
  <path fill="#D42A2A" d="M153.6 286.5152V143.5648H180.42880000000002V264.3968H243.712V286.5152Z"/><path fill="#D42A2A" d="M272.9984 286.5152V143.5648H366.3872V165.6832H299.8272V202.9568H359.8336V225.0752H299.8272V286.5152Z"/>
  <rect x="148.5" y="307.2" width="215.0" height="4.1" fill="#D42A2A"/>
  <path fill="#D42A2A" d="M106.68851200000002 371.265536V345.534464H122.945536V349.515776H111.51769600000002V356.225024H122.54003200000001V360.206336H111.51769600000002V367.284224H122.945536V371.265536Z"/><path fill="#D42A2A" d="M138.85849600000003 352.796672H138.48985600000003V371.265536H134.36108800000002V345.534464H140.29619200000002L147.04230400000003 364.003328H147.41094400000003V345.534464H151.539712V371.265536H145.604608Z"/><path fill="#D42A2A" d="M175.67334400000004 367.689728H175.37843200000003Q175.04665600000004 368.463872 174.56742400000005 369.201152Q174.08819200000005 369.938432 173.38777600000003 370.491392Q172.68736000000004 371.044352 171.74732800000004 371.376128Q170.80729600000004 371.707904 169.59078400000004 371.707904Q165.68320000000003 371.707904 163.67411200000004 368.26112Q161.66502400000005 364.814336 161.66502400000005 358.58432Q161.66502400000005 352.022528 164.02432000000005 348.557312Q166.38361600000005 345.092096 171.28652800000003 345.092096Q173.20345600000005 345.092096 174.65958400000005 345.60819200000003Q176.11571200000003 346.124288 177.16633600000003 347.045888Q178.21696000000003 347.967488 178.89894400000003 349.23929599999997Q179.58092800000003 350.511104 179.98643200000004 351.985664L175.56275200000005 353.23904Q175.30470400000004 352.42803200000003 174.99136000000004 351.65388800000005Q174.67801600000004 350.879744 174.18035200000003 350.308352Q173.68268800000004 349.73696 172.98227200000002 349.386752Q172.28185600000003 349.036544 171.24966400000005 349.036544Q168.85350400000004 349.036544 167.82131200000003 350.95347200000003Q166.78912000000003 352.8704 166.78912000000003 356.18816V360.316928Q166.78912000000003 361.975808 167.02873600000004 363.358208Q167.26835200000005 364.740608 167.82131200000003 365.73593600000004Q168.37427200000005 366.731264 169.25900800000005 367.26579200000003Q170.14374400000003 367.80032 171.47084800000005 367.80032Q173.53523200000004 367.80032 174.60428800000005 366.565376Q175.67334400000004 365.330432 175.67334400000004 363.413504V361.312256H170.99161600000005V357.810176H179.98643200000004V371.265536H175.67334400000004Z"/><path fill="#D42A2A" d="M191.29139200000006 371.265536V367.652864H197.07904000000005V349.147136H191.29139200000006V345.534464H207.65900800000006V349.147136H201.87136000000004V367.652864H207.65900800000006V371.265536Z"/><path fill="#D42A2A" d="M223.64569600000007 352.796672H223.27705600000007V371.265536H219.14828800000006V345.534464H225.08339200000006L231.82950400000007 364.003328H232.19814400000007V345.534464H236.32691200000005V371.265536H230.39180800000005Z"/><path fill="#D42A2A" d="M248.00051200000007 371.265536V345.534464H264.2575360000001V349.515776H252.82969600000007V356.225024H263.85203200000007V360.206336H252.82969600000007V367.284224H264.2575360000001V371.265536Z"/><path fill="#D42A2A" d="M276.2629120000001 371.265536V345.534464H292.5199360000001V349.515776H281.0920960000001V356.225024H292.1144320000001V360.206336H281.0920960000001V367.284224H292.5199360000001V371.265536Z"/><path fill="#D42A2A" d="M309.2439040000001 371.265536H304.4147200000001V345.534464H314.1836800000001Q317.9438080000001 345.534464 319.9344640000001 347.67257600000005Q321.9251200000001 349.810688 321.9251200000001 353.497088Q321.9251200000001 356.335616 320.6164480000001 358.270976Q319.3077760000001 360.206336 316.8747520000001 360.722432L322.3674880000001 371.265536H317.0590720000001L312.1561600000001 361.275392H309.2439040000001ZM313.1883520000001 357.515264Q315.1421440000001 357.515264 315.9900160000001 356.722688Q316.83788800000013 355.930112 316.83788800000013 354.197504V352.796672Q316.83788800000013 351.06406400000003 315.9900160000001 350.271488Q315.1421440000001 349.478912 313.1883520000001 349.478912H309.2439040000001V357.515264Z"/><path fill="#D42A2A" d="M332.6033920000001 371.265536V367.652864H338.39104000000015V349.147136H332.6033920000001V345.534464H348.9710080000001V349.147136H343.1833600000001V367.652864H348.9710080000001V371.265536Z"/><path fill="#D42A2A" d="M364.9576960000001 352.796672H364.58905600000014V371.265536H360.46028800000016V345.534464H366.39539200000013L373.1415040000001 364.003328H373.51014400000014V345.534464H377.6389120000001V371.265536H371.70380800000015Z"/><path fill="#D42A2A" d="M401.77254400000015 367.689728H401.47763200000014Q401.14585600000015 368.463872 400.6666240000002 369.201152Q400.18739200000016 369.938432 399.48697600000014 370.491392Q398.7865600000001 371.044352 397.84652800000015 371.376128Q396.9064960000002 371.707904 395.68998400000015 371.707904Q391.78240000000017 371.707904 389.77331200000015 368.26112Q387.7642240000001 364.814336 387.7642240000001 358.58432Q387.7642240000001 352.022528 390.1235200000001 348.557312Q392.4828160000001 345.092096 397.38572800000014 345.092096Q399.3026560000001 345.092096 400.7587840000001 345.60819200000003Q402.21491200000014 346.124288 403.2655360000001 347.045888Q404.31616000000014 347.967488 404.99814400000014 349.23929599999997Q405.68012800000014 350.511104 406.08563200000015 351.985664L401.66195200000016 353.23904Q401.4039040000001 352.42803200000003 401.0905600000001 351.65388800000005Q400.7772160000001 350.879744 400.27955200000014 350.308352Q399.78188800000015 349.73696 399.0814720000002 349.386752Q398.38105600000017 349.036544 397.34886400000016 349.036544Q394.95270400000015 349.036544 393.92051200000014 350.95347200000003Q392.88832000000014 352.8704 392.88832000000014 356.18816V360.316928Q392.88832000000014 361.975808 393.12793600000015 363.358208Q393.36755200000016 364.740608 393.92051200000014 365.73593600000004Q394.47347200000013 366.731264 395.3582080000001 367.26579200000003Q396.24294400000014 367.80032 397.57004800000016 367.80032Q399.6344320000002 367.80032 400.70348800000016 366.565376Q401.77254400000015 365.330432 401.77254400000015 363.413504V361.312256H397.09081600000013V357.810176H406.08563200000015V371.265536H401.77254400000015Z"/>
</svg>